PathFileType	4	(X/Y/Z)	/Users/itak/Documents/Research/Walk-IL/dataset/trc/00141_00007.trc
DataRate	CameraRate	NumFrames	NumMarkers	Units	OrigDataRate	OrigDataStartFrame	OrigNumFrames
100.000000	100.000000	4	53	mm	100.000000	74	599
Frame#	Time	RPSI			LPSI			L3			STRN			T10			C7			CLAV			RBAK			LBAK			LSHO			LUPA			LAEL			LAOL			LWTS			LWPS			LFRA			LIFD			LHPS			LHTS			RSHO			RUPA			RAEL			RAOL			RWTS			RWPS			RFRA			RIFD			RHTS			RHPS			RBHD			LFHD			RFHD			LBHD			LHIP			RHIP			RASI			LASI			LKNE			LTHI			LANK			LTIP			LTOE			LMT1			LMT5			LHEE			RKNE			RTHI			RANK			RTIP			RTOE			RMT1			RMT5			RHEE			
		X1	Y1	Z1	X2	Y2	Z2	X3	Y3	Z3	X4	Y4	Z4	X5	Y5	Z5	X6	Y6	Z6	X7	Y7	Z7	X8	Y8	Z8	X9	Y9	Z9	X10	Y10	Z10	X11	Y11	Z11	X12	Y12	Z12	X13	Y13	Z13	X14	Y14	Z14	X15	Y15	Z15	X16	Y16	Z16	X17	Y17	Z17	X18	Y18	Z18	X19	Y19	Z19	X20	Y20	Z20	X21	Y21	Z21	X22	Y22	Z22	X23	Y23	Z23	X24	Y24	Z24	X25	Y25	Z25	X26	Y26	Z26	X27	Y27	Z27	X28	Y28	Z28	X29	Y29	Z29	X30	Y30	Z30	X31	Y31	Z31	X32	Y32	Z32	X33	Y33	Z33	X34	Y34	Z34	X35	Y35	Z35	X36	Y36	Z36	X37	Y37	Z37	X38	Y38	Z38	X39	Y39	Z39	X40	Y40	Z40	X41	Y41	Z41	X42	Y42	Z42	X43	Y43	Z43	X44	Y44	Z44	X45	Y45	Z45	X46	Y46	Z46	X47	Y47	Z47	X48	Y48	Z48	X49	Y49	Z49	X50	Y50	Z50	X51	Y51	Z51	X52	Y52	Z52	X53	Y53	Z53	

75	0.74	-761.6500244140625	1131.8203125	1226.28173828125	-766.6931762695312	1132.545654296875	1091.28955078125	-770.4965209960938	1162.257080078125	1156.340087890625	-557.1768188476562	1363.560791015625	1146.548828125	-813.5721435546875	1312.69873046875	1154.7041015625	-782.974609375	1604.648559570312	1139.086791992188	-597.3544311523438	1497.486694335938	1143.31298828125	-834.072021484375	1420.682250976562	1228.498168945312	-791.3297119140625	1584.359497070312	1036.848022460938	-705.847900390625	1569.469482421875	966.6576538085938	-725.4609375	1436.470458984375	897.5830078125	-704.9840698242188	1216.309692382812	880.492431640625	-769.1090087890625	1204.166625976562	941.4202270507812	-592.7044677734375	962.5675659179688	923.3037719726562	-675.03515625	933.8297729492188	901.203857421875	-685.1268310546875	1100.506591796875	878.0240478515625	-568.9690551757812	769.3207397460938	941.9042358398438	-643.6805419921875	859.5753784179688	901.4526977539062	-576.2566528320312	874.90673828125	914.1896362304688	-721.9515991210938	1586.532958984375	1318.764526367188	-736.5079956054688	1513.836547851562	1383.97900390625	-740.6260986328125	1219.297729492188	1406.16162109375	-750.0457153320312	1217.233154296875	1311.061401367188	-587.4676513671875	980.630126953125	1390.841796875	-660.8250122070312	962.345703125	1426.071166992188	-713.6614990234375	1146.60302734375	1423.348388671875	-552.345458984375	787.1876220703125	1380.615600585938	-553.0596923828125	874.6569213867188	1397.947387695312	-619.1326904296875	863.783203125	1428.77001953125	-734.2431640625	1773.508666992188	1225.319091796875	-588.1904907226562	1844.363647460938	1076.662475585938	-572.4862670898438	1844.14599609375	1206.09375	-758.0714721679688	1778.561767578125	1092.524780273438	-679.0015258789062	1039.910034179688	981.390869140625	-627.9015502929688	1034.385986328125	1337.240234375	-549.7984619140625	1107.092407226562	1281.354614257812	-567.1919555664062	1104.617797851562	1015.301391601562	-666.8641967773438	538.8904418945312	1017.781066894531	-686.1152954101562	684.565673828125	989.3104858398438	-776.6871948242188	39.48079681396484	1044.687133789062	-769.3491821289062	293.1793212890625	1004.0966796875	-542.3641967773438	42.23880767822266	1086.083374023438	-620.9119873046875	44.21848678588867	1126.128051757812	-653.2272338867188	39.93021774291992	1012.578857421875	-842.6339721679688	40.57616424560547	1111.509399414062	-655.1414184570312	542.7783203125	1305.733032226562	-614.9312133789062	820.7584838867188	1330.847778320312	-772.3806762695312	34.05980682373047	1294.995483398438	-686.010986328125	410.9745178222656	1317.76953125	-542.3602905273438	47.86072158813477	1233.775268554688	-603.6184692382812	38.18490982055664	1193.883178710938	-637.4783325195312	43.34616851806641	1311.753784179688	-831.8388061523438	35.47626876831055	1248.070678710938	
76	0.75	-761.526123046875	1131.834838867188	1226.392822265625	-766.5752563476562	1132.553100585938	1091.4189453125	-770.4298095703125	1162.280395507812	1156.401123046875	-557.1021118164062	1363.5224609375	1146.64111328125	-813.4639282226562	1312.676147460938	1154.832641601562	-782.832763671875	1604.621826171875	1139.27978515625	-597.3318481445312	1497.442138671875	1143.450439453125	-833.9537963867188	1420.658203125	1228.607055664062	-791.2295532226562	1584.365112304688	1037.03076171875	-705.7958374023438	1569.48193359375	966.7926025390625	-725.4122924804688	1436.487915039062	897.751708984375	-704.9459228515625	1216.310180664062	880.63818359375	-769.047607421875	1204.169189453125	941.569091796875	-592.6669921875	962.5714721679688	923.4874877929688	-675.0107421875	933.8397827148438	901.3889770507812	-685.1151733398438	1100.52392578125	878.20166015625	-569.0135498046875	769.3302612304688	942.1199340820312	-643.620849609375	859.5816650390625	901.6275634765625	-576.2158203125	874.9015502929688	914.375244140625	-721.8397216796875	1586.453125	1318.9423828125	-736.4107055664062	1513.760986328125	1384.121459960938	-740.5006103515625	1219.227783203125	1406.2626953125	-749.9172973632812	1217.165161132812	1311.141357421875	-587.2704467773438	980.6141967773438	1390.946533203125	-660.6450805664062	962.2860717773438	1426.160278320312	-713.5291137695312	1146.5400390625	1423.451049804688	-552.0463256835938	787.18017578125	1380.720458984375	-552.8591918945312	874.6884155273438	1398.056762695312	-618.9894409179688	863.728271484375	1428.866455078125	-734.0234985351562	1773.507202148438	1225.51171875	-588.052001953125	1844.353759765625	1076.821655273438	-572.2872314453125	1844.103637695312	1206.236083984375	-757.8976440429688	1778.586303710938	1092.77587890625	-678.9266967773438	1039.915283203125	981.451171875	-627.7596435546875	1034.376220703125	1337.345703125	-549.6879272460938	1107.035522460938	1281.430053710938	-567.1100463867188	1104.61181640625	1015.371643066406	-666.8206787109375	538.8875732421875	1017.850402832031	-686.0584106445312	684.5662231445312	989.3849487304688	-776.68603515625	39.48583221435547	1044.686645507812	-769.3251953125	293.1931762695312	1004.122436523438	-542.3630981445312	42.2397575378418	1086.087524414062	-620.909912109375	44.21780014038086	1126.135620117188	-653.2201538085938	39.93228530883789	1012.588562011719	-842.635009765625	40.57587051391602	1111.5078125	-655.1692504882812	542.7696533203125	1305.817016601562	-614.6865844726562	820.72607421875	1330.814575195312	-772.3778686523438	34.05477523803711	1294.992919921875	-686.0324096679688	410.9722900390625	1317.841674804688	-542.3569946289062	47.85676574707031	1233.774658203125	-603.6162109375	38.18527984619141	1193.88232421875	-637.4765625	43.33975982666016	1311.759521484375	-831.8267822265625	35.48078918457031	1248.079223632812	
77	0.76	-761.407470703125	1131.8447265625	1226.50390625	-766.44775390625	1132.557861328125	1091.557983398438	-770.3692626953125	1162.304077148438	1156.462890625	-557.0241088867188	1363.485961914062	1146.728881835938	-813.368408203125	1312.654907226562	1154.963989257812	-782.6923828125	1604.596313476562	1139.468383789062	-597.3069458007812	1497.401123046875	1143.581787109375	-833.8270874023438	1420.628051757812	1228.728271484375	-791.1284790039062	1584.364990234375	1037.219604492188	-705.7384643554688	1569.492553710938	966.9364624023438	-725.3699340820312	1436.502563476562	897.9216918945312	-704.9144287109375	1216.307495117188	880.783935546875	-768.98779296875	1204.166870117188	941.7096557617188	-592.6236572265625	962.5823974609375	923.6757202148438	-674.973876953125	933.8506469726562	901.5768432617188	-685.1005859375	1100.536499023438	878.3822631835938	-569.052001953125	769.3438720703125	942.3380126953125	-643.5625610351562	859.58984375	901.7891235351562	-576.1644287109375	874.8864135742188	914.5568237304688	-721.7254028320312	1586.375244140625	1319.124633789062	-736.3106079101562	1513.688110351562	1384.267211914062	-740.3629150390625	1219.154296875	1406.379638671875	-749.7874145507812	1217.102294921875	1311.217163085938	-587.0713500976562	980.5964965820312	1391.051513671875	-660.4644775390625	962.2257690429688	1426.251586914062	-713.3885498046875	1146.475708007812	1423.554931640625	-551.7291870117188	787.1787719726562	1380.811645507812	-552.67626953125	874.7026977539062	1398.182739257812	-618.83056640625	863.6768188476562	1428.958740234375	-733.8221435546875	1773.506469726562	1225.694580078125	-587.9224853515625	1844.34521484375	1076.975708007812	-572.1025390625	1844.064819335938	1206.373291015625	-757.7198486328125	1778.601806640625	1093.029418945312	-678.852783203125	1039.923217773438	981.5167846679688	-627.6235961914062	1034.365478515625	1337.4482421875	-549.583740234375	1106.97802734375	1281.50537109375	-567.031005859375	1104.605346679688	1015.443908691406	-666.783447265625	538.8863525390625	1017.923278808594	-686.0116577148438	684.5667114257812	989.4681396484375	-776.6823120117188	39.49177169799805	1044.69091796875	-769.308349609375	293.2100830078125	1004.157287597656	-542.3614501953125	42.24000930786133	1086.090209960938	-620.90771484375	44.21728515625	1126.141479492188	-653.2136840820312	39.93432235717773	1012.597595214844	-842.6334838867188	40.57455825805664	1111.509155273438	-655.1874389648438	542.7614135742188	1305.897827148438	-614.5213623046875	820.6971435546875	1330.8154296875	-772.3756103515625	34.0478515625	1294.990844726562	-686.0463256835938	410.9677734375	1317.913452148438	-542.353759765625	47.85432815551758	1233.774536132812	-603.61279296875	38.18592071533203	1193.88134765625	-637.4744262695312	43.33403015136719	1311.763671875	-831.8155517578125	35.48350524902344	1248.088012695312	
78	0.77	-761.2952270507812	1131.850708007812	1226.614379882812	-766.3155517578125	1132.560180664062	1091.705078125	-770.3109130859375	1162.32666015625	1156.529541015625	-556.9444580078125	1363.450927734375	1146.814331054688	-813.2865600585938	1312.63623046875	1155.098510742188	-782.5575561523438	1604.573364257812	1139.650634765625	-597.279052734375	1497.363403320312	1143.708984375	-833.6923217773438	1420.59033203125	1228.862548828125	-791.029296875	1584.358520507812	1037.412475585938	-705.6747436523438	1569.5009765625	967.091796875	-725.3333129882812	1436.514770507812	898.091796875	-704.8876953125	1216.3037109375	880.9324951171875	-768.9307250976562	1204.159790039062	941.8412475585938	-592.57275390625	962.6007080078125	923.8717041015625	-674.9238891601562	933.8619995117188	901.7686157226562	-685.081787109375	1100.54345703125	878.5632934570312	-569.0776977539062	769.3609008789062	942.554443359375	-643.5010986328125	859.5990600585938	901.940185546875	-576.1015625	874.8665771484375	914.7365112304688	-721.6118774414062	1586.300048828125	1319.308471679688	-736.2099609375	1513.617553710938	1384.415405273438	-740.2136840820312	1219.076171875	1406.512939453125	-749.6541137695312	1217.0439453125	1311.291015625	-586.8677978515625	980.5751953125	1391.158081054688	-660.281005859375	962.16552734375	1426.34765625	-713.2379150390625	1146.408569335938	1423.660034179688	-551.398681640625	787.18212890625	1380.889404296875	-552.4957885742188	874.7053833007812	1398.315185546875	-618.6481323242188	863.630615234375	1429.047119140625	-733.6410522460938	1773.507080078125	1225.8671875	-587.7994995117188	1844.337890625	1077.124267578125	-571.929443359375	1844.031372070312	1206.505981445312	-757.5440063476562	1778.610473632812	1093.279418945312	-678.7791137695312	1039.933837890625	981.5892944335938	-627.49365234375	1034.3515625	1337.545532226562	-549.486083984375	1106.920776367188	1281.580932617188	-566.9561157226562	1104.59814453125	1015.518615722656	-666.7506103515625	538.886962890625	1017.999572753906	-685.9727783203125	684.5672607421875	989.5599975585938	-776.676025390625	39.49803924560547	1044.698974609375	-769.2970581054688	293.2295227050781	1004.200256347656	-542.3594970703125	42.23946762084961	1086.091796875	-620.9057006835938	44.21684265136719	1126.145385742188	-653.2083129882812	39.93612289428711	1012.605163574219	-842.6296997070312	40.57330322265625	1111.512939453125	-655.1968383789062	542.7529296875	1305.974243164062	-614.4313354492188	820.672119140625	1330.84912109375	-772.3729248046875	34.04010009765625	1294.989868164062	-686.0529174804688	410.9610900878906	1317.984130859375	-542.3501586914062	47.85308837890625	1233.774291992188	-603.608642578125	38.18667602539062	1193.880615234375	-637.4722900390625	43.32948303222656	1311.765991210938	-831.8062133789062	35.48561859130859	1248.09619140625	
